<svg width="154" height="56" viewBox="0 0 154 56" fill="none" xmlns="http://www.w3.org/2000/svg">
<g clip-path="url(#clip0_4_26)">
<path d="M50.9429 18.8191C49.8067 17.6881 48.468 16.7776 46.9953 16.1344C45.4441 15.4844 43.7775 15.1495 42.0938 15.1495C40.4101 15.1495 38.7435 15.4844 37.1923 16.1344C35.7005 16.7712 34.3434 17.6821 33.1921 18.8191C32.0518 19.9531 31.1426 21.295 30.5144 22.771C29.8571 24.3189 29.5257 25.9839 29.5406 27.6636V56L35.3106 54.2167V38.0889C36.137 38.6187 37.0195 39.0568 37.9423 39.3953C40.8813 40.4218 44.1005 40.3216 46.969 39.1144C49.9649 37.8293 52.3519 35.4547 53.6404 32.4778C54.3004 30.9425 54.6406 29.2904 54.6406 27.6211C54.6406 25.9518 54.3004 24.2998 53.6404 22.7645C53.0001 21.2921 52.0848 19.9534 50.9429 18.8191ZM48.8441 27.6179C48.8532 28.517 48.6693 29.4077 48.3046 30.2307C47.9543 31.0294 47.4567 31.7561 46.8374 32.3733C46.2147 32.9867 45.483 33.4805 44.6794 33.8299C43.855 34.1759 42.9691 34.3542 42.0741 34.3542C41.179 34.3542 40.2931 34.1759 39.4687 33.8299C38.6662 33.4937 37.936 33.0081 37.3173 32.3994C36.6994 31.7811 36.202 31.0547 35.8501 30.2568C35.4871 29.4333 35.3033 28.5429 35.3106 27.644C35.3102 26.7665 35.4843 25.8976 35.823 25.0872C36.1618 24.2767 36.6584 23.5406 37.2844 22.9213C37.906 22.3064 38.6379 21.8124 39.4424 21.4646C40.2725 21.1061 41.1688 20.9236 42.0741 20.929C42.9797 20.9195 43.8769 21.1021 44.7058 21.4646C45.5094 21.814 46.241 22.3078 46.8638 22.9213C47.4845 23.5372 47.9823 24.2642 48.3309 25.0638C48.6788 25.8705 48.8536 26.7404 48.8441 27.6179Z" fill="white"/>
<path d="M78.6941 18.8191C77.5568 17.6895 76.2183 16.7792 74.7465 16.1344C73.1953 15.4844 71.5287 15.1495 69.845 15.1495C68.1613 15.1495 66.4947 15.4844 64.9435 16.1344C63.4508 16.7696 62.0933 17.6806 60.9433 18.8191C59.803 19.9531 58.8938 21.295 58.2656 22.771C57.606 24.3184 57.2724 25.9834 57.2853 27.6636V56L63.0618 54.2167V38.0889C63.8875 38.62 64.7701 39.0582 65.6935 39.3953C68.6325 40.4218 71.8517 40.3216 74.7202 39.1144C77.7137 37.8324 80.1003 35.4629 81.3916 32.4908C82.0516 30.9555 82.3918 29.3035 82.3918 27.6342C82.3918 25.9649 82.0516 24.3129 81.3916 22.7775C80.7527 21.3005 79.8374 19.9573 78.6941 18.8191ZM76.5953 27.6179C76.6044 28.517 76.4205 29.4077 76.0558 30.2307C75.7055 31.0294 75.2079 31.7561 74.5886 32.3733C73.9597 32.9787 73.2237 33.4636 72.4175 33.8038C71.1886 34.3246 69.8309 34.4685 68.5189 34.217C67.207 33.9656 66.0007 33.3303 65.0553 32.3929C64.4375 31.7745 63.9401 31.0481 63.5882 30.2503C63.2252 29.4267 63.0413 28.5364 63.0487 27.6375C63.0394 26.7403 63.2163 25.8509 63.5684 25.0246C63.9054 24.227 64.3947 23.5016 65.0093 22.8886C65.6275 22.2774 66.3548 21.7857 67.1541 21.4385C67.9841 21.0797 68.8806 20.8973 69.7858 20.9028C70.6914 20.8938 71.5885 21.0764 72.4175 21.4385C73.2211 21.7879 73.9527 22.2817 74.5755 22.8951C75.1962 23.5111 75.694 24.238 76.0427 25.0377C76.4077 25.8495 76.596 26.7288 76.5953 27.6179Z" fill="white"/>
<path d="M92.925 20.8049H104.031V15.3309H92.9184C91.903 15.3012 90.8919 15.4742 89.945 15.8395C88.9981 16.2048 88.1347 16.755 87.4059 17.4576C86.6771 18.1603 86.0977 19.0009 85.702 19.9299C85.3064 20.8588 85.1025 21.8572 85.1025 22.8658C85.1025 23.8743 85.3064 24.8727 85.702 25.8016C86.0977 26.7306 86.6771 27.5713 87.4059 28.2739C88.1347 28.9765 88.9981 29.5267 89.945 29.892C90.8919 30.2573 91.903 30.4303 92.9184 30.4006H99.2411C99.7539 30.4172 100.245 30.611 100.629 30.9485C101.013 31.2859 101.267 31.7459 101.346 32.2492C101.346 32.308 101.346 32.3994 101.346 32.4582C101.345 33.0016 101.126 33.5223 100.739 33.9066C100.352 34.2909 99.8279 34.5076 99.2806 34.5093H85.3326V39.9897H99.3135C101.327 39.9897 103.258 39.1956 104.682 37.7819C106.106 36.3682 106.906 34.4509 106.906 32.4517C106.906 30.4524 106.106 28.5351 104.682 27.1214C103.258 25.7078 101.327 24.9136 99.3135 24.9136H92.9842C92.4695 24.9033 91.9753 24.7117 91.5896 24.3731C91.204 24.0345 90.9521 23.5709 90.8789 23.065C90.8789 23.0062 90.8789 22.9213 90.8789 22.8625C90.8805 22.3218 91.0958 21.8033 91.4784 21.4185C91.8611 21.0338 92.3805 20.8134 92.925 20.8049Z" fill="white"/>
<path d="M127.775 15.2787H120.624L116.637 20.7526V0L110.84 1.79634V40.0028H116.637V31.7396L122.801 40.1334H129.953L119.716 26.2722L127.775 15.2787Z" fill="white"/>
<path d="M153 22.9017C152.369 21.4055 151.45 20.0455 150.296 18.8975C149.132 17.7705 147.769 16.865 146.276 16.2258C144.724 15.5727 143.056 15.2362 141.371 15.2362C139.686 15.2362 138.018 15.5727 136.466 16.2258C134.977 16.8751 133.625 17.7969 132.479 18.9432C131.333 20.0899 130.419 21.4449 129.788 22.9343C129.117 24.4833 128.777 26.1537 128.788 27.8399C128.783 29.4982 129.124 31.1395 129.788 32.6607C130.424 34.1435 131.337 35.4934 132.479 36.6387C133.63 37.7741 134.991 38.6789 136.486 39.3038C139.373 40.5173 142.611 40.622 145.572 39.5978C146.498 39.2659 147.381 38.8274 148.204 38.2914L153.993 39.9701V27.8073C154.007 26.1215 153.669 24.4511 153 22.9017ZM148.21 34.3851L145.079 33.4902C144.947 33.5686 144.815 33.634 144.684 33.6993C144.556 33.7785 144.425 33.8505 144.289 33.9148L144.046 34.0259C143.954 34.0759 143.853 34.1091 143.75 34.1239C143.75 34.1239 143.684 34.1239 143.651 34.1761C143.47 34.2459 143.283 34.2984 143.092 34.3329C142.735 34.4414 142.366 34.5072 141.993 34.5289C140.886 34.636 139.77 34.463 138.749 34.0259L138.335 33.8299C137.879 33.602 137.451 33.3237 137.058 33.0003C136.891 32.8692 136.733 32.7274 136.585 32.5757C136.427 32.4261 136.284 32.262 136.157 32.0858C135.873 31.7615 135.625 31.4065 135.42 31.0276C135.302 30.8488 135.203 30.6583 135.124 30.4593C135.032 30.2472 134.955 30.029 134.894 29.8061C134.678 29.1594 134.572 28.4819 134.578 27.8008C134.577 26.9018 134.763 26.0123 135.124 25.1879C135.387 24.5785 135.734 24.009 136.157 23.4961C136.426 23.1681 136.728 22.8682 137.058 22.6012C137.559 22.1708 138.122 21.8184 138.73 21.556C140.205 20.9299 141.857 20.8488 143.388 21.3274C143.615 21.3777 143.836 21.4545 144.046 21.556C144.654 21.8183 145.224 22.1634 145.736 22.5816C145.904 22.7143 146.065 22.856 146.217 23.0062C146.851 23.615 147.352 24.3464 147.691 25.1552C148.049 25.9801 148.233 26.8696 148.23 27.7681L148.21 34.3851Z" fill="white"/>
<path d="M25.205 27.8073V40.0093L19.4218 38.324C18.5978 38.858 17.7148 39.2964 16.7902 39.6305C15.4551 40.1085 14.0446 40.3452 12.6255 40.3294C10.9333 40.3425 9.25708 40.0043 7.70424 39.3365C6.22171 38.7016 4.87004 37.8003 3.71723 36.678C3.65918 36.6242 3.60632 36.5651 3.55933 36.5016L7.65161 32.4386L7.81609 32.6019C8.12207 32.9075 8.45696 33.1831 8.81613 33.4249C9.05806 33.5857 9.31086 33.7298 9.57274 33.8561C9.69775 33.9279 9.82933 33.9867 9.97407 34.052C10.1759 34.1414 10.385 34.2135 10.5991 34.2676C11.4454 34.5497 12.343 34.6477 13.2308 34.555C13.6155 34.5439 13.9966 34.4779 14.3624 34.359C14.5353 34.3264 14.7048 34.2783 14.869 34.2153C14.869 34.2153 14.869 34.2153 14.9085 34.2153C14.9237 34.2127 14.9393 34.2127 14.9545 34.2153C15.0717 34.1804 15.1861 34.1367 15.2967 34.0847C15.3983 34.045 15.4954 33.9947 15.5862 33.9345C15.7598 33.8639 15.9271 33.7786 16.0862 33.6797L16.3296 33.5491L19.4679 34.4374V27.7942C19.4661 26.8956 19.2803 26.0066 18.9218 25.1814C18.7432 24.7913 18.5342 24.4157 18.2968 24.0579C18.0678 23.6924 17.7913 23.3586 17.4744 23.065C17.4732 23.0552 17.4696 23.046 17.4638 23.038C17.4581 23.03 17.4504 23.0235 17.4415 23.0193C17.3968 22.972 17.3484 22.9283 17.2968 22.8886L21.4088 18.806L21.5404 18.9367L21.5996 18.9824C22.7393 20.1142 23.6446 21.4568 24.2642 22.9343C24.9049 24.4792 25.2249 26.1367 25.205 27.8073Z" fill="white"/>
<path d="M11.1782 11.3333H8.48069C7.94718 11.3333 7.42565 11.1762 6.98205 10.8819C6.53845 10.5876 6.1927 10.1693 5.98854 9.67997C5.78437 9.1906 5.73095 8.6521 5.83504 8.13259C5.93912 7.61307 6.19603 7.13587 6.57328 6.76132C6.95053 6.38677 7.43117 6.1317 7.95443 6.02836C8.4777 5.92502 9.02007 5.97806 9.51297 6.18076C10.0059 6.38347 10.4272 6.72674 10.7236 7.16716C11.02 7.60758 11.1782 8.12538 11.1782 8.65507V11.3333Z" fill="#EE757E"/>
<path d="M19.2968 11.3333H16.5993C16.0658 11.3333 15.5443 11.1762 15.1007 10.8819C14.6571 10.5876 14.3114 10.1693 14.1072 9.67997C13.903 9.1906 13.8496 8.6521 13.9537 8.13259C14.0578 7.61307 14.3147 7.13587 14.6919 6.76132C15.0692 6.38677 15.5498 6.1317 16.0731 6.02836C16.5963 5.92502 17.1387 5.97806 17.6316 6.18076C18.1245 6.38347 18.5458 6.72674 18.8422 7.16716C19.1386 7.60758 19.2968 8.12538 19.2968 8.65507V11.3333Z" fill="#EE757E"/>
<mask id="mask0_4_26" style="mask-type:luminance" maskUnits="userSpaceOnUse" x="-1" y="14" width="28" height="28">
<path d="M26.4683 14.1225H13.0532L5.18065e-05 16.265L-0.611816 41.0087L26.4683 14.1225Z" fill="white"/>
</mask>
<g mask="url(#mask0_4_26)">
<path d="M24.2115 22.9017C23.5778 21.4052 22.6572 20.0452 21.5009 18.8975C20.3407 17.7686 18.98 16.8628 17.4876 16.2258C15.936 15.5727 14.268 15.2362 12.5827 15.2362C10.8975 15.2362 9.22949 15.5727 7.67793 16.2258C6.18798 16.8734 4.83512 17.7955 3.69091 18.9432C2.54438 20.0899 1.6308 21.4449 1.00001 22.9343C0.333087 24.4732 -0.00733776 26.132 -3.39617e-05 27.8073C-0.00994327 29.4765 0.330646 31.1294 1.00001 32.6607C1.63583 34.1435 2.54891 35.4934 3.69091 36.6387C4.83955 37.7739 6.19769 38.6788 7.69108 39.3038C9.24298 39.9746 10.9199 40.3129 12.6123 40.2967C14.0315 40.3126 15.442 40.0758 16.777 39.5978C17.7024 39.2654 18.5856 38.827 19.4087 38.2914L25.1984 39.9701V27.8073C25.2144 26.1219 24.8784 24.4516 24.2115 22.9017ZM19.4218 34.3851L16.2901 33.4902C16.1586 33.5686 16.027 33.634 15.8954 33.6993C15.768 33.7785 15.6362 33.8505 15.5006 33.9148L15.2572 34.0259C15.1652 34.0759 15.0649 34.1091 14.9611 34.1239C14.9282 34.1239 14.8953 34.1239 14.8624 34.1761C14.6812 34.2451 14.494 34.2976 14.3032 34.3329C13.9459 34.4403 13.5771 34.506 13.2045 34.5289C12.0957 34.6354 10.9778 34.4624 9.95434 34.0259L9.54643 33.8299C9.08903 33.6052 8.6605 33.3266 8.27006 33.0003C8.10227 32.8676 7.94194 32.7259 7.78977 32.5757C7.63384 32.4244 7.4908 32.2606 7.36212 32.0858C7.07893 31.7557 6.83191 31.3966 6.62525 31.0146C6.51228 30.8328 6.41331 30.6428 6.32918 30.4463C6.23709 30.2342 6.16015 30.0159 6.09891 29.7931C5.88869 29.1453 5.78429 28.4682 5.78969 27.7877C5.7866 26.8892 5.97026 25.9997 6.32918 25.1748C6.59417 24.5668 6.94171 23.9975 7.36212 23.483C7.63109 23.1528 7.93554 22.8527 8.27006 22.5881C8.7624 22.1632 9.31702 21.8152 9.91486 21.556C11.3902 20.9299 13.0426 20.8488 14.573 21.3274C14.8002 21.3789 15.0209 21.4556 15.2309 21.556C15.8389 21.8198 16.4078 22.1649 16.9217 22.5816C17.0888 22.7127 17.2471 22.8545 17.3954 23.0062C18.0315 23.6146 18.5353 24.346 18.8758 25.1552C19.2317 25.981 19.4152 26.8699 19.4153 27.7681L19.4218 34.3851Z" fill="#EE757E"/>
</g>
</g>
<defs>
<clipPath id="clip0_4_26">
<rect width="154" height="56" fill="white"/>
</clipPath>
</defs>
</svg>
